# xmcd
#
# Track frame offsets: 
#        160
#        12680
#        24215
#        37252
#        49570
#        60830
#        71615
#        84467
#        98112
#        111352
#        122172
#        141215
#        160587
#        175862
#        191275
#        204115
#        222632
#        234560
#
# Disc length: 3278 seconds
#
# Revision: 0
# Processed by: cddbd v1.4PL0 Copyright (c) Steve Scherf et al.
# Submitted via: ExactAudioCopy v0.95a3
#
DISCID=f20ccc12
DTITLE=Various Artist - COUNTRY  WESTERN HITS Vol.U2-CD1
DYEAR=1994
DGENRE=Country
TTITLE0=NANCY SINATRA and LEE HAZLEWOOD-Jackson
TTITLE1=GLENN CAMPBELL and BOBBIE GENTRY-All I have to do is dream
TTITLE2=DOLLY PARTON-I will always love you
TTITLE3=EDDY ARNOLD-Cattle call
TTITLE4=SONNY JAMES-Young love
TTITLE5=SLIM WHITMAN-Rose Marie
TTITLE6=JIM REEVES-Distant drums
TTITLE7=GEORGE JONES-A good year for the roses
TTITLE8=TAMMY WYNETTE-D.I.V.O.R.C.E.
TTITLE9=PORTER WAGONER-Green green grass of home
TTITLE10=BOBBIE GENTRY-Ode to Billie Jo
TTITLE11=KENNY ROGERS-Coward of the country
TTITLE12=TANYA TUCKER-Delta dawn
TTITLE13=JUICE NEWTON-Queen of hearts
TTITLE14=DR.HOOK-Sharing the night together
TTITLE15=EARL THOMAS COMLEY-I need a good woman bad
TTITLE16=KENNY ROGERS-Me and Bobby McGee
TTITLE17=JOHNNY CASH-San Quentin
EXTD=
EXTT0=
EXTT1=
EXTT2=
EXTT3=
EXTT4=
EXTT5=
EXTT6=
EXTT7=
EXTT8=
EXTT9=
EXTT10=
EXTT11=
EXTT12=
EXTT13=
EXTT14=
EXTT15=
EXTT16=
EXTT17=
PLAYORDER=
